<svg width="48" height="48" viewBox="0 0 48 48" fill="none" xmlns="http://www.w3.org/2000/svg">
<g filter="url(#filter0_n_139_28)">
<rect width="48" height="48" fill="#09090B"/>
</g>
<path d="M22.5734 29.32C22.5734 30.28 22.392 31.24 22.0294 32.2C21.6667 33.1387 21.1227 33.992 20.3974 34.76C19.6934 35.528 18.7974 36.1467 17.7094 36.616C16.6427 37.0853 15.384 37.32 13.9334 37.32C12.0134 37.32 10.4027 36.9147 9.10138 36.104C7.80004 35.272 6.80804 34.2053 6.12538 32.904C5.46404 31.5813 5.13338 30.1733 5.13338 28.68H9.93338C9.93338 29.7893 10.296 30.6853 11.0214 31.368C11.768 32.0293 12.7387 32.36 13.9334 32.36C15.128 32.36 16.0667 32.104 16.7494 31.592C17.432 31.08 17.7734 30.4293 17.7734 29.64C17.7734 28.8293 17.4214 28.2533 16.7174 27.912C16.0347 27.5493 14.8934 27.1653 13.2934 26.76C11.5867 26.3333 10.1467 25.8107 8.97338 25.192C7.82138 24.5733 6.94671 23.7733 6.34938 22.792C5.75204 21.8107 5.45338 20.5733 5.45338 19.08C5.45338 18.12 5.62404 17.1707 5.96538 16.232C6.30671 15.272 6.82938 14.408 7.53338 13.64C8.23738 12.872 9.12271 12.2533 10.1894 11.784C11.256 11.3147 12.504 11.08 13.9334 11.08C15.8534 11.08 17.4534 11.496 18.7334 12.328C20.0134 13.1387 20.9734 14.2053 21.6134 15.528C22.2534 16.8293 22.5734 18.2267 22.5734 19.72H17.7734C17.7734 18.5893 17.432 17.6933 16.7494 17.032C16.0667 16.3707 15.128 16.04 13.9334 16.04C12.7387 16.04 11.8214 16.296 11.1814 16.808C10.5627 17.2987 10.2534 17.9493 10.2534 18.76C10.2534 19.2933 10.392 19.72 10.6694 20.04C10.9467 20.36 11.3947 20.6373 12.0134 20.872C12.6534 21.1067 13.5067 21.3627 14.5734 21.64C16.28 22.0667 17.7307 22.5893 18.9254 23.208C20.12 23.8267 21.0267 24.6267 21.6454 25.608C22.264 26.5893 22.5734 27.8267 22.5734 29.32ZM25.7534 37V11.4H34.0734C36.868 11.4 38.98 12.0293 40.4094 13.288C41.8387 14.5253 42.5534 16.3493 42.5534 18.76C42.5534 21.4053 41.5934 23.3147 39.6734 24.488C41.38 25.5547 42.2334 27.272 42.2334 29.64V34.12C42.2334 35.08 42.3934 36.04 42.7134 37H37.9134C37.5934 36.04 37.4334 35.08 37.4334 34.12V29.64C37.4334 27.9333 36.3134 27.08 34.0734 27.08H30.5534V37H25.7534ZM30.5534 22.28H34.0734C36.6334 22.28 37.9134 21.32 37.9134 19.4C37.9134 17.48 36.6334 16.52 34.0734 16.52H30.5534V22.28Z" fill="url(#paint0_linear_139_28)"/>
<defs>
<filter id="filter0_n_139_28" x="0" y="0" width="48" height="48" filterUnits="userSpaceOnUse" color-interpolation-filters="sRGB">
<feFlood flood-opacity="0" result="BackgroundImageFix"/>
<feBlend mode="normal" in="SourceGraphic" in2="BackgroundImageFix" result="shape"/>
<feTurbulence type="fractalNoise" baseFrequency="3.3333332538604736 3.3333332538604736" stitchTiles="stitch" numOctaves="3" result="noise" seed="1747" />
<feColorMatrix in="noise" type="luminanceToAlpha" result="alphaNoise" />
<feComponentTransfer in="alphaNoise" result="coloredNoise1">
<feFuncA type="discrete" tableValues="0 0 0 0 0 0 0 0 0 0 0 0 1 1 1 1 1 1 1 1 1 1 1 1 1 1 1 1 1 1 1 1 1 1 1 1 1 1 0 0 0 0 0 0 0 0 0 0 0 0 0 0 0 0 0 0 0 0 0 0 0 0 0 0 0 0 0 0 0 0 0 0 0 0 0 0 0 0 0 0 0 0 0 0 0 0 0 0 0 0 0 0 0 0 0 0 0 0 0 0 "/>
</feComponentTransfer>
<feComposite operator="in" in2="shape" in="coloredNoise1" result="noise1Clipped" />
<feFlood flood-color="rgba(255, 255, 255, 0.2)" result="color1Flood" />
<feComposite operator="in" in2="noise1Clipped" in="color1Flood" result="color1" />
<feMerge result="effect1_noise_139_28">
<feMergeNode in="shape" />
<feMergeNode in="color1" />
</feMerge>
</filter>
<linearGradient id="paint0_linear_139_28" x1="24" y1="5" x2="24" y2="44" gradientUnits="userSpaceOnUse">
<stop stop-color="#FEF5CC"/>
<stop offset="0.2" stop-color="#F9E793"/>
<stop offset="0.45" stop-color="#E8C766"/>
<stop offset="0.7" stop-color="#BD9748"/>
<stop offset="1" stop-color="#7B5D2B"/>
</linearGradient>
</defs>
</svg>
