<svg width="995" height="280" viewBox="0 0 995 280" fill="none" xmlns="http://www.w3.org/2000/svg">
<path d="M62 200.4C51.8667 200.4 42.8 198.667 34.8 195.2C26.9333 191.733 20.6667 186.667 16 180C11.4667 173.333 9.13333 165.267 9 155.8H37.6C37.7333 159.933 38.8 163.667 40.8 167C42.8 170.333 45.5333 173 49 175C52.6 176.867 56.8667 177.8 61.8 177.8C66.0667 177.8 69.7333 177.133 72.8 175.8C76 174.333 78.4667 172.333 80.2 169.8C81.9333 167.267 82.8 164.267 82.8 160.8C82.8 156.8 81.8 153.467 79.8 150.8C77.9333 148.133 75.2667 145.867 71.8 144C68.4667 142.133 64.5333 140.467 60 139C55.6 137.4 50.9333 135.733 46 134C34.9333 130.4 26.4667 125.6 20.6 119.6C14.8667 113.6 12 105.667 12 95.8C12 87.4 14 80.2 18 74.2C22.1333 68.2 27.8 63.6 35 60.4C42.2 57.2 50.4 55.6 59.6 55.6C69.0667 55.6 77.3333 57.2667 84.4 60.6C91.6 63.8 97.2667 68.4667 101.4 74.6C105.667 80.7333 107.867 87.9333 108 96.2H79.2C79.0667 93.1333 78.1333 90.2667 76.4 87.6C74.8 84.8 72.5333 82.6 69.6 81C66.6667 79.2667 63.2 78.4 59.2 78.4C55.7333 78.2667 52.5333 78.8 49.6 80C46.8 81.2 44.5333 83 42.8 85.4C41.2 87.6667 40.4 90.5333 40.4 94C40.4 97.3333 41.2 100.133 42.8 102.4C44.5333 104.667 46.8667 106.667 49.8 108.4C52.7333 110 56.2 111.533 60.2 113C64.2 114.333 68.5333 115.733 73.2 117.2C80.1333 119.6 86.5333 122.467 92.4 125.8C98.2667 129 102.933 133.2 106.4 138.4C109.867 143.6 111.6 150.467 111.6 159C111.6 166.333 109.667 173.133 105.8 179.4C101.933 185.667 96.3333 190.733 89 194.6C81.8 198.467 72.8 200.4 62 200.4ZM138.503 198V58H190.703C202.036 58 211.37 59.9333 218.703 63.8C226.036 67.6667 231.503 72.8667 235.103 79.4C238.703 85.8 240.503 92.9333 240.503 100.8C240.503 108.267 238.77 115.267 235.303 121.8C231.836 128.2 226.37 133.4 218.903 137.4C211.57 141.267 202.103 143.2 190.503 143.2H165.503V198H138.503ZM211.103 198L182.303 136.4H211.503L241.903 198H211.103ZM165.503 123.6H189.103C197.236 123.6 203.236 121.6 207.103 117.6C210.97 113.6 212.903 108.333 212.903 101.8C212.903 95.2667 210.97 90.1333 207.103 86.4C203.37 82.5333 197.37 80.6 189.103 80.6H165.503V123.6Z" fill="url(#paint0_linear_88_11)"/>
<path opacity="0.7" d="M326 65V215" stroke="url(#paint1_linear_88_11)" stroke-width="5"/>
<path d="M432.9 173.32C427.327 173.32 422.34 172.367 417.94 170.46C413.613 168.553 410.203 165.767 407.71 162.1C405.217 158.433 403.897 153.997 403.75 148.79H419.48C419.553 151.063 420.103 153.117 421.13 154.95C422.23 156.783 423.77 158.25 425.75 159.35C427.73 160.377 430.113 160.89 432.9 160.89C435.173 160.89 437.19 160.56 438.95 159.9C440.71 159.167 442.067 158.14 443.02 156.82C444.047 155.427 444.56 153.703 444.56 151.65C444.56 149.45 444.01 147.617 442.91 146.15C441.883 144.683 440.417 143.437 438.51 142.41C436.603 141.31 434.44 140.357 432.02 139.55C429.673 138.67 427.217 137.79 424.65 136.91C418.417 134.783 413.65 132.033 410.35 128.66C407.123 125.287 405.51 120.85 405.51 115.35C405.51 110.877 406.61 107.027 408.81 103.8C411.01 100.573 414.09 98.08 418.05 96.32C422.01 94.56 426.52 93.68 431.58 93.68C436.787 93.68 441.37 94.5967 445.33 96.43C449.29 98.19 452.407 100.757 454.68 104.13C456.953 107.503 458.163 111.463 458.31 116.01H442.36C442.287 114.03 441.773 112.307 440.82 110.84C439.94 109.373 438.657 108.2 436.97 107.32C435.357 106.44 433.45 106 431.25 106C429.343 105.927 427.583 106.22 425.97 106.88C424.43 107.467 423.22 108.383 422.34 109.63C421.46 110.803 421.02 112.38 421.02 114.36C421.02 116.193 421.423 117.733 422.23 118.98C423.11 120.227 424.32 121.327 425.86 122.28C427.473 123.16 429.343 124.04 431.47 124.92C433.67 125.727 436.127 126.607 438.84 127.56C442.727 128.88 446.283 130.457 449.51 132.29C452.737 134.05 455.303 136.36 457.21 139.22C459.19 142.08 460.18 145.783 460.18 150.33C460.18 154.437 459.117 158.25 456.99 161.77C454.937 165.217 451.893 168.003 447.86 170.13C443.827 172.257 438.84 173.32 432.9 173.32ZM490.83 172V106.99H468.28V95H528.12V106.99H505.57V172H490.83ZM569.009 173.32C563.362 173.32 558.229 172.183 553.609 169.91C548.989 167.637 545.322 164.227 542.609 159.68C539.895 155.133 538.539 149.34 538.539 142.3V95H553.389V142.41C553.389 146.223 554.012 149.45 555.259 152.09C556.505 154.657 558.339 156.563 560.759 157.81C563.179 159.057 566.039 159.68 569.339 159.68C572.712 159.68 575.572 159.057 577.919 157.81C580.265 156.563 582.062 154.657 583.309 152.09C584.629 149.45 585.289 146.223 585.289 142.41V95H600.139V142.3C600.139 149.34 598.709 155.133 595.849 159.68C593.062 164.227 589.322 167.637 584.629 169.91C579.935 172.183 574.729 173.32 569.009 173.32ZM614.95 172V95H641.68C650.627 95 658.033 96.6133 663.9 99.84C669.767 102.993 674.093 107.467 676.88 113.26C679.74 118.98 681.17 125.727 681.17 133.5C681.17 141.273 679.74 148.057 676.88 153.85C674.093 159.57 669.767 164.043 663.9 167.27C658.107 170.423 650.7 172 641.68 172H614.95ZM629.8 159.24H640.91C647.217 159.24 652.203 158.213 655.87 156.16C659.537 154.107 662.14 151.173 663.68 147.36C665.22 143.473 665.99 138.853 665.99 133.5C665.99 128.073 665.22 123.453 663.68 119.64C662.14 115.753 659.537 112.783 655.87 110.73C652.203 108.677 647.217 107.65 640.91 107.65H629.8V159.24ZM695.43 172V95H710.28V172H695.43ZM763.148 173.32C755.521 173.32 748.811 171.633 743.018 168.26C737.298 164.887 732.788 160.23 729.488 154.29C726.188 148.277 724.538 141.347 724.538 133.5C724.538 125.653 726.188 118.76 729.488 112.82C732.788 106.807 737.298 102.113 743.018 98.74C748.811 95.3667 755.521 93.68 763.148 93.68C770.848 93.68 777.594 95.3667 783.388 98.74C789.254 102.113 793.801 106.807 797.028 112.82C800.254 118.76 801.868 125.653 801.868 133.5C801.868 141.347 800.254 148.277 797.028 154.29C793.801 160.23 789.254 164.887 783.388 168.26C777.594 171.633 770.848 173.32 763.148 173.32ZM763.148 160.01C767.988 160.01 772.168 158.947 775.688 156.82C779.208 154.62 781.921 151.54 783.828 147.58C785.734 143.62 786.688 138.927 786.688 133.5C786.688 128 785.734 123.307 783.828 119.42C781.921 115.46 779.208 112.417 775.688 110.29C772.168 108.163 767.988 107.1 763.148 107.1C758.454 107.1 754.348 108.163 750.828 110.29C747.308 112.417 744.558 115.46 742.578 119.42C740.671 123.307 739.718 128 739.718 133.5C739.718 138.927 740.671 143.62 742.578 147.58C744.558 151.54 747.308 154.62 750.828 156.82C754.348 158.947 758.454 160.01 763.148 160.01Z" fill="url(#paint2_linear_88_11)"/>
<defs>
<linearGradient id="paint0_linear_88_11" x1="160.976" y1="0" x2="160.976" y2="280" gradientUnits="userSpaceOnUse">
<stop stop-color="#FFF4C2"/>
<stop offset="0.2" stop-color="#D4AF37"/>
<stop offset="0.5" stop-color="#E8C766"/>
<stop offset="0.75" stop-color="#A8842A"/>
<stop offset="1" stop-color="#6B5318"/>
</linearGradient>
<linearGradient id="paint1_linear_88_11" x1="326" y1="65" x2="328" y2="65.0133" gradientUnits="userSpaceOnUse">
<stop stop-color="#FFF4C2"/>
<stop offset="0.25" stop-color="#E8C766"/>
<stop offset="0.5" stop-color="#D4AF37"/>
<stop offset="0.75" stop-color="#A8842A"/>
<stop offset="1" stop-color="#6B5318"/>
</linearGradient>
<linearGradient id="paint2_linear_88_11" x1="697.612" y1="63" x2="697.612" y2="216.884" gradientUnits="userSpaceOnUse">
<stop stop-color="#FFF4C2"/>
<stop offset="0.2" stop-color="#D4AF37"/>
<stop offset="0.5" stop-color="#E8C766"/>
<stop offset="0.75" stop-color="#A8842A"/>
<stop offset="1" stop-color="#6B5318"/>
</linearGradient>
</defs>
</svg>
