<svg width="800" height="800" viewBox="0 0 800 800" fill="none" xmlns="http://www.w3.org/2000/svg">
<path d="M731.429 131.428H68.5714C33.8563 131.428 5.71423 159.571 5.71423 194.286V605.714C5.71423 640.429 33.8563 668.571 68.5714 668.571H731.429C766.144 668.571 794.286 640.429 794.286 605.714V194.286C794.286 159.571 766.144 131.428 731.429 131.428Z" fill="white" stroke="#D9D9D9" stroke-width="11.4286"/>
<path d="M137.541 482.65L135.95 491.77C135.534 495.226 138.254 498.266 141.793 498.266H369.923C373.462 498.266 376.193 495.226 375.789 491.77L373.628 482.65C373.058 477.188 377.048 472.2 382.487 471.618C387.973 471.024 392.818 475.026 393.376 480.465L395.478 489.395C397.259 504.654 388.603 518.038 373.189 518.038H138.527C123.101 518.038 114.456 504.654 116.238 489.395L117.793 480.465C118.375 475.014 123.196 471.013 128.671 471.618C134.133 472.2 138.111 477.188 137.541 482.65Z" fill="#E30613"/>
<path d="M348.655 429.414C359.046 429.438 367.322 421.862 367.109 411.911C366.895 401.71 357.621 395.131 347.266 395.107H326.366C321.734 395.107 317.934 391.26 317.934 386.439C317.934 381.617 321.722 377.758 326.366 377.758H340.331C349.748 377.39 356.991 371.678 357.443 362.784C357.918 353.26 349.712 346.099 339.701 346.099H305.822L305.679 429.426H348.655V429.414ZM374.329 362.713C374.329 371.405 371.253 376.321 366.159 382.378L365.648 382.983L366.349 383.411C376.443 389.562 383.484 398.86 384.019 411.922C384.802 431.374 368.308 447.476 348.75 447.429H297.165C292.142 447.429 288.081 443.249 288.081 438.119V338.06C288.081 332.906 292.142 328.75 297.141 328.75L339.725 328.869C358.297 328.881 374.329 342.537 374.329 362.713Z" fill="black"/>
<path d="M195.384 413.205L195.622 413.906L195.871 413.205C198.258 406.614 201.144 399.323 204.207 391.367C207.366 382.995 210.501 374.991 213.636 367.368C216.807 359.625 219.811 352.726 222.673 346.705C225.535 340.554 227.91 336.338 229.727 334.023C232.553 330.65 236.282 328.94 240.925 328.94H243.062C245.901 328.94 248.121 329.688 249.784 331.101C251.316 332.431 252.218 333.963 252.467 335.733L265.803 439.116C265.803 441.776 265.043 443.843 263.523 445.374C262.027 446.788 259.877 447.5 257.051 447.5C254.225 447.5 251.992 446.835 250.342 445.517C248.513 444.199 247.48 442.477 247.219 440.339C246.767 436.908 246.352 433.084 245.948 428.892C245.354 424.712 243.288 406.674 242.694 402.126C242.148 397.435 238.396 368.223 237.125 357.618L237.006 356.716L232.731 365.681C231.282 368.757 229.715 372.462 227.981 376.773C226.271 381.083 224.526 385.631 222.827 390.441C220.963 395.108 212.71 418.691 212.71 418.691C211.95 420.829 210.489 425.139 209.183 429.106C207.853 433.048 206.63 436.611 206.297 437.299C204.35 441.206 200.526 443.771 195.657 443.819C190.741 443.795 186.917 441.206 184.97 437.311C184.614 436.623 183.402 433.06 182.072 429.118C180.742 425.151 179.329 420.841 178.522 418.703C178.522 418.703 170.269 395.119 168.428 390.453C166.706 385.643 164.972 381.095 163.251 376.784C161.529 372.474 159.961 368.769 158.548 365.693L154.249 356.728L154.154 357.63C152.86 368.234 149.131 397.447 148.561 402.138C147.967 406.686 145.889 424.724 145.331 428.904C144.904 433.096 144.464 436.919 144.013 440.351C143.764 442.489 142.719 444.211 140.914 445.529C139.251 446.835 137.019 447.5 134.192 447.5C131.366 447.5 129.229 446.788 127.721 445.363C126.212 443.831 125.441 441.753 125.429 439.104L138.764 335.721C139.061 333.951 139.94 332.431 141.472 331.089C143.122 329.676 145.379 328.928 148.181 328.928H150.342C154.986 328.928 158.714 330.638 161.517 334.011C163.357 336.326 165.709 340.542 168.571 346.693C171.456 352.714 174.449 359.613 177.607 367.356C180.742 374.979 183.901 382.983 187.06 391.355C190.112 399.323 192.997 406.614 195.384 413.205Z" fill="black"/>
<path d="M169.58 257.5H342.86C359.176 257.5 367.311 269.755 369.223 285.917L370.244 293.838C370.826 299.383 366.741 304.359 361.302 304.941C355.839 305.522 350.935 301.509 350.365 295.951L349.676 290.999C348.94 284.86 346.054 277.379 339.808 277.379H172.632C166.386 277.379 164.082 284.86 163.346 290.999L162.681 295.951C162.111 301.497 157.206 305.522 151.72 304.941C146.246 304.359 142.184 299.383 142.778 293.838L143.218 285.917C145.141 269.755 153.252 257.5 169.58 257.5Z" fill="#E30613"/>
<path d="M479.933 373.127C478.544 378.518 477.095 384.289 475.587 390.417C474.079 396.521 472.559 402.387 471.074 407.968C469.602 413.561 468.213 418.442 466.871 422.669C465.553 426.897 464.424 429.771 463.546 431.338C461.978 434.093 459.223 435.471 455.293 435.471C454.188 435.471 452.775 435.245 450.994 434.782C449.236 434.343 447.776 433.096 446.576 431.041C445.697 429.474 444.593 426.458 443.251 421.933C441.933 417.421 440.544 412.243 439.048 406.353C437.587 400.463 436.114 394.241 434.63 387.674C433.169 381.107 431.827 375.027 430.652 369.363C429.476 363.746 428.479 358.913 427.695 354.958C426.911 350.98 426.472 348.629 426.377 347.821C426.282 347.334 426.234 346.99 426.234 346.8V346.218C426.234 344.556 426.852 343.19 428.146 342.169C429.417 341.136 431.008 340.625 432.861 340.625C434.642 340.625 436.055 341.017 437.159 341.753C438.228 342.466 439.012 343.784 439.499 345.636C439.499 345.826 439.796 347.275 440.306 349.911C440.864 352.547 441.553 355.944 442.384 360.041C443.239 364.173 444.166 368.757 445.187 373.863C446.22 378.969 447.289 384.147 448.441 389.396C449.569 394.621 450.709 399.679 451.837 404.608C452.965 409.488 454.01 413.716 455.008 417.231C455.981 413.906 457.062 410.106 458.249 405.831C459.425 401.579 460.612 397.162 461.788 392.626C462.964 388.054 464.08 383.517 465.184 378.946C466.253 374.386 467.262 370.134 468.212 366.228C469.139 362.297 469.946 358.829 470.635 355.801C471.324 352.749 471.858 350.505 472.274 349.009C472.761 347.156 473.687 345.684 475.064 344.615C476.477 343.546 478.116 342.976 480.099 342.976C482.249 342.976 484.03 343.558 485.419 344.686C486.761 345.814 487.664 347.275 488.056 349.009C489.16 353.818 490.324 359.186 491.594 365.123C492.865 371.037 494.207 377.034 495.573 383.126C496.962 389.206 498.411 395.167 499.848 400.997C501.332 406.84 502.757 412.006 504.146 416.506C505.12 412.991 506.201 408.764 507.317 403.883C508.445 398.955 509.585 393.92 510.761 388.719C511.96 383.541 513.076 378.387 514.157 373.293C515.249 368.211 516.235 363.627 517.137 359.542C518.016 355.493 518.729 352.167 519.263 349.626C519.797 347.061 520.071 345.743 520.071 345.648C520.557 343.796 521.341 342.478 522.434 341.765C523.491 341.017 524.927 340.625 526.697 340.625C528.549 340.625 530.141 341.136 531.411 342.169C532.706 343.19 533.335 344.556 533.335 346.218V346.8C533.335 346.99 533.287 347.334 533.192 347.821C533.121 348.629 532.634 350.968 531.779 354.958C530.972 358.913 529.951 363.746 528.775 369.363C527.576 375.027 526.257 381.083 524.773 387.602C523.336 394.122 521.864 400.321 520.451 406.187C519.014 412.077 517.648 417.254 516.294 421.719C514.976 426.161 513.848 429.189 512.969 430.756C511.794 432.811 510.309 434.129 508.481 434.663C506.652 435.198 505.203 435.471 504.134 435.471C503.719 435.471 503.161 435.423 502.353 435.328C501.569 435.209 500.738 435.031 499.836 434.722C498.957 434.437 498.078 433.974 497.199 433.345C496.297 432.68 495.608 431.837 495.121 430.756C494.243 428.904 493.174 425.804 491.951 421.506C490.727 417.183 489.386 412.326 487.972 406.887C486.559 401.437 485.146 395.749 483.769 389.823C482.391 383.874 481.109 378.304 479.933 373.127Z" fill="black"/>
<path d="M562.405 408.978C560.897 413.739 559.591 418.133 558.451 422.183C557.299 426.244 556.23 429.581 555.244 432.146C554.128 435.031 551.967 436.468 548.677 436.468C546.386 436.468 544.723 435.898 543.666 434.77C542.633 433.606 542.111 432.158 542.111 430.376C542.111 429.688 542.206 429.046 542.407 428.429C542.609 427.859 543.215 425.816 544.284 422.361C545.317 418.905 546.682 414.594 548.381 409.429C550.055 404.275 551.931 398.622 553.962 392.507C556.016 386.367 558.106 380.287 560.303 374.291C562.476 368.294 564.626 362.689 566.716 357.511C568.794 352.31 570.741 348.106 572.511 344.948C573.318 343.273 574.387 342.109 575.717 341.516C577.071 340.922 578.887 340.625 581.179 340.625C583.376 340.625 585.229 340.993 586.761 341.658C588.316 342.371 589.373 343.558 589.967 345.233C591.38 348.189 593.054 352.191 594.978 357.179C596.902 362.19 598.956 367.593 601.07 373.388C603.219 379.183 605.321 385.109 607.411 391.129C609.513 397.174 611.437 402.802 613.159 408.004C614.881 413.181 616.389 417.623 617.624 421.304C618.859 424.985 619.642 427.348 619.939 428.405C620.117 429.023 620.236 429.664 620.236 430.352C620.236 432.134 619.642 433.583 618.431 434.746C617.244 435.886 615.498 436.444 613.218 436.444C611.52 436.444 610.261 436.076 609.394 435.304C608.587 434.592 607.886 433.499 607.399 432.122C606.414 429.557 605.226 426.208 603.896 422.159C602.566 418.109 601.129 413.716 599.645 408.954H562.405V408.978ZM595.512 396.046C593.411 389.609 591.439 383.684 589.539 378.304C587.639 372.901 585.716 367.771 583.721 362.902C583.222 361.822 582.711 360.587 582.165 359.102C581.619 357.689 581.298 356.834 581.203 356.538C581.108 356.609 580.764 357.452 580.241 358.984C579.671 360.516 579.161 361.822 578.662 362.902C576.679 367.759 574.755 372.901 572.902 378.304C571.074 383.684 569.102 389.609 567.024 396.046H595.512Z" fill="black"/>
<path d="M646.053 399.014C645.554 398.539 645.091 397.981 644.639 397.388C644.176 396.818 643.701 396.105 643.214 395.321C641.801 393.35 640.329 390.951 638.678 388.113C637.027 385.299 635.401 382.294 633.75 379.136C632.123 375.953 630.544 372.747 629.012 369.541C627.456 366.334 626.055 363.342 624.844 360.587C623.585 357.796 622.528 355.386 621.638 353.379C620.723 351.324 620.153 349.899 619.987 349.116C619.785 348.617 619.666 348.249 619.619 347.999C619.595 347.75 619.547 347.382 619.547 346.883C619.547 345.102 620.165 343.606 621.4 342.442C622.635 341.219 624.333 340.625 626.53 340.625C628.501 340.625 629.914 341.124 630.781 342.109C631.624 343.119 632.266 344.104 632.634 345.09C632.836 345.612 633.322 346.669 634.059 348.344C634.795 350.042 635.709 352.12 636.802 354.59C637.882 357.06 639.141 359.791 640.531 362.76C641.956 365.741 643.345 368.662 644.794 371.547C646.231 374.409 647.632 377.153 648.962 379.789C650.292 382.401 651.574 384.551 652.762 386.249C654.662 383.363 656.681 379.753 658.877 375.395C661.051 371.025 663.141 366.738 665.124 362.487C667.119 358.224 668.829 354.447 670.277 351.182C671.702 347.904 672.569 345.874 672.89 345.09C673.282 344.104 673.899 343.119 674.742 342.109C675.586 341.124 677.011 340.625 678.994 340.625C681.191 340.625 682.889 341.219 684.148 342.43C685.383 343.582 686 345.09 686 346.871C686 347.37 685.976 347.738 685.929 347.988C685.881 348.237 685.762 348.605 685.584 349.104C685.264 349.888 684.694 351.324 683.862 353.426C683.019 355.492 681.963 357.939 680.704 360.706C679.469 363.472 678.091 366.477 676.559 369.695C675.004 372.925 673.424 376.108 671.798 379.29C670.147 382.449 668.52 385.477 666.857 388.351C665.231 391.212 663.699 393.659 662.321 395.63C661.431 396.912 660.469 398.076 659.483 399.038V429.806C659.483 431.777 658.866 433.381 657.607 434.639C656.372 435.851 654.769 436.492 652.774 436.492C650.779 436.492 649.176 435.851 647.941 434.639C646.682 433.381 646.064 431.777 646.064 429.806L646.053 399.014Z" fill="black"/>
</svg>
